<?xml version="1.0" encoding="UTF-8"?>
<svg version="1.1" xmlns="http://www.w3.org/2000/svg" width="128" height="128">
<path d="M0 0 C42.24 0 84.48 0 128 0 C128 42.24 128 84.48 128 128 C85.76 128 43.52 128 0 128 C0 85.76 0 43.52 0 0 Z " fill="#D38A5A" transform="translate(0,0)"/>
<path d="M0 0 C-0.39904541 0.97348389 -0.79809082 1.94696777 -1.20922852 2.94995117 C-2.68896212 6.56955675 -4.15156063 10.19588215 -5.60913086 13.82446289 C-6.24185765 15.39275036 -6.8791911 16.95918757 -7.52124023 18.52368164 C-8.44437109 20.77537728 -9.35062418 23.03324986 -10.25390625 25.29296875 C-10.68818687 26.33701118 -10.68818687 26.33701118 -11.13124084 27.40214539 C-12.68474025 31.3422463 -13.42088577 33.95419869 -12 38 C-11.34390151 39.33856527 -10.67869336 40.67274812 -10 42 C-36.6858671 77.48282397 -36.6858671 77.48282397 -53.7578125 80.65429688 C-68.43939532 82.29729805 -83.49897165 80.46621481 -98 78 C-98 77.34 -98 76.68 -98 76 C-97.34 76 -96.68 76 -96 76 C-95.73413086 75.28142822 -95.46826172 74.56285645 -95.19433594 73.82250977 C-93.98028567 70.95341018 -92.54741476 68.47562345 -90.890625 65.83984375 C-90.00697266 64.4022168 -90.00697266 64.4022168 -89.10546875 62.93554688 C-87.8624002 60.92700979 -86.60967495 58.92441899 -85.34765625 56.92773438 C-84.76371094 55.97060547 -84.17976563 55.01347656 -83.578125 54.02734375 C-83.03575195 53.15843506 -82.49337891 52.28952637 -81.93457031 51.39428711 C-80.72325474 49.04530533 -80.72325474 49.04530533 -81.73730469 46.79516602 C-83.01407438 44.97999055 -84.35948123 43.4913807 -86 42 C-84.60919475 38.86261846 -82.98977796 36.74524719 -80.56005859 34.33300781 C-79.85948334 33.63258362 -79.15890808 32.93215942 -78.43710327 32.21051025 C-77.68184357 31.46557312 -76.92658386 30.72063599 -76.1484375 29.953125 C-75.37440582 29.18192322 -74.60037415 28.41072144 -73.80288696 27.6161499 C-71.33158077 25.15603144 -68.85340817 22.70296152 -66.375 20.25 C-64.69745948 18.58249106 -63.02037055 16.91452768 -61.34375 15.24609375 C-57.23439081 11.1587763 -53.11937353 7.07722304 -49 3 C-45.15722656 4.78515625 -45.15722656 4.78515625 -43.7421875 6.71875 C-41.88597161 8.38880398 -41.88597161 8.38880398 -38.5078125 7.59375 C-37.04263557 7.24659593 -35.58185089 6.88058491 -34.125 6.5 C-33.34503662 6.31219971 -32.56507324 6.12439941 -31.76147461 5.9309082 C-29.16986086 5.30414802 -26.58507719 4.65316564 -24 4 C-21.12698829 3.28531313 -18.25287909 2.57587208 -15.37646484 1.875 C-13.5216827 1.42184483 -11.66904579 0.95980354 -9.81884766 0.48828125 C-8.97241699 0.27945312 -8.12598633 0.070625 -7.25390625 -0.14453125 C-6.50439697 -0.33378174 -5.7548877 -0.52303223 -4.98266602 -0.71801758 C-3 -1 -3 -1 0 0 Z " fill="#DADBDA" transform="translate(112,23)"/>
<path d="M0 0 C-0.39904541 0.97348389 -0.79809082 1.94696777 -1.20922852 2.94995117 C-2.68896212 6.56955675 -4.15156063 10.19588215 -5.60913086 13.82446289 C-6.24185765 15.39275036 -6.8791911 16.95918757 -7.52124023 18.52368164 C-8.44437109 20.77537728 -9.35062418 23.03324986 -10.25390625 25.29296875 C-10.68818687 26.33701118 -10.68818687 26.33701118 -11.13124084 27.40214539 C-12.68474025 31.3422463 -13.42088577 33.95419869 -12 38 C-11.34390151 39.33856527 -10.67869336 40.67274812 -10 42 C-36.6858671 77.48282397 -36.6858671 77.48282397 -53.7578125 80.65429688 C-68.43939532 82.29729805 -83.49897165 80.46621481 -98 78 C-98 77.34 -98 76.68 -98 76 C-97.34 76 -96.68 76 -96 76 C-95.73413086 75.28142822 -95.46826172 74.56285645 -95.19433594 73.82250977 C-93.98028567 70.95341018 -92.54741476 68.47562345 -90.890625 65.83984375 C-90.00697266 64.4022168 -90.00697266 64.4022168 -89.10546875 62.93554688 C-87.8624002 60.92700979 -86.60967495 58.92441899 -85.34765625 56.92773438 C-84.76371094 55.97060547 -84.17976563 55.01347656 -83.578125 54.02734375 C-83.03575195 53.15843506 -82.49337891 52.28952637 -81.93457031 51.39428711 C-80.72325474 49.04530533 -80.72325474 49.04530533 -81.73730469 46.79516602 C-83.01407438 44.97999055 -84.35948123 43.4913807 -86 42 C-84.60919475 38.86261846 -82.98977796 36.74524719 -80.56005859 34.33300781 C-79.85948334 33.63258362 -79.15890808 32.93215942 -78.43710327 32.21051025 C-77.68184357 31.46557312 -76.92658386 30.72063599 -76.1484375 29.953125 C-75.37440582 29.18192322 -74.60037415 28.41072144 -73.80288696 27.6161499 C-71.33158077 25.15603144 -68.85340817 22.70296152 -66.375 20.25 C-64.69745948 18.58249106 -63.02037055 16.91452768 -61.34375 15.24609375 C-57.23439081 11.1587763 -53.11937353 7.07722304 -49 3 C-45.15722656 4.78515625 -45.15722656 4.78515625 -43.7421875 6.71875 C-41.88597161 8.38880398 -41.88597161 8.38880398 -38.5078125 7.59375 C-37.04263557 7.24659593 -35.58185089 6.88058491 -34.125 6.5 C-33.34503662 6.31219971 -32.56507324 6.12439941 -31.76147461 5.9309082 C-29.16986086 5.30414802 -26.58507719 4.65316564 -24 4 C-21.12698829 3.28531313 -18.25287909 2.57587208 -15.37646484 1.875 C-13.5216827 1.42184483 -11.66904579 0.95980354 -9.81884766 0.48828125 C-8.97241699 0.27945312 -8.12598633 0.070625 -7.25390625 -0.14453125 C-6.50439697 -0.33378174 -5.7548877 -0.52303223 -4.98266602 -0.71801758 C-3 -1 -3 -1 0 0 Z M-50.56924438 6.32873535 C-51.1865744 6.95050659 -51.80390442 7.57227783 -52.43994141 8.21289062 C-53.14051666 8.91361694 -53.84109192 9.61434326 -54.56289673 10.33630371 C-55.31815643 11.10188599 -56.07341614 11.86746826 -56.8515625 12.65625 C-57.62559418 13.43311157 -58.39962585 14.20997314 -59.19711304 15.01037598 C-61.6777884 17.50228149 -64.15143507 20.00103814 -66.625 22.5 C-68.30162627 24.18665239 -69.97870376 25.87285637 -71.65625 27.55859375 C-75.77609088 31.7005326 -79.89017592 35.84812314 -84 40 C-82.63886987 43.04581486 -81.10669904 45.13839026 -78.74365234 47.48339844 C-78.08311859 48.14378113 -77.42258484 48.80416382 -76.74203491 49.48455811 C-76.03052277 50.18574768 -75.31901062 50.88693726 -74.5859375 51.609375 C-73.85629791 52.33618469 -73.12665833 53.06299438 -72.37490845 53.81182861 C-70.0462612 56.12929198 -67.71075174 58.4396995 -65.375 60.75 C-63.79381347 62.32115444 -62.21307875 63.89276371 -60.6328125 65.46484375 C-56.7604331 69.31518653 -52.88239829 73.15976117 -49 77 C-45.95418514 75.63886987 -43.86160974 74.10669904 -41.51660156 71.74365234 C-40.85621887 71.08311859 -40.19583618 70.42258484 -39.51544189 69.74203491 C-38.81425232 69.03052277 -38.11306274 68.31901062 -37.390625 67.5859375 C-36.30041046 66.49147812 -36.30041046 66.49147812 -35.18817139 65.37490845 C-32.87070802 63.0462612 -30.5603005 60.71075174 -28.25 58.375 C-26.67884556 56.79381347 -25.10723629 55.21307875 -23.53515625 53.6328125 C-19.68481347 49.7604331 -15.84023883 45.88239829 -12 42 C-13.35781214 38.9691582 -14.88418564 36.86349327 -17.22460938 34.51660156 C-17.87868774 33.85621887 -18.53276611 33.19583618 -19.20666504 32.51544189 C-19.91190308 31.81425232 -20.61714111 31.11306274 -21.34375 30.390625 C-22.06864624 29.66381531 -22.79354248 28.93700562 -23.54040527 28.18817139 C-25.07119011 26.65602721 -26.60449697 25.12639925 -28.14013672 23.59912109 C-30.4981077 21.25188369 -32.84519546 18.89414222 -35.19140625 16.53515625 C-36.67904636 15.04883718 -38.16730644 13.56313831 -39.65625 12.078125 C-40.36148804 11.3688385 -41.06672607 10.659552 -41.79333496 9.92877197 C-42.44741333 9.28099792 -43.1014917 8.63322388 -43.77539062 7.96582031 C-44.35115845 7.39164368 -44.92692627 6.81746704 -45.5201416 6.22589111 C-47.64629569 4.46461895 -48.47633475 4.5565939 -50.56924438 6.32873535 Z " fill="#209A80" transform="translate(112,23)"/>
<path d="M0 0 C3.35139092 0.27928258 4.6926523 0.67255649 7.03125 3.1640625 C11.97948012 10.29187018 14.54595035 20.38496047 13 29 C10.94232151 35.47396078 8.42072427 40.81415038 4 46 C1.8125 45.9375 1.8125 45.9375 -1 45 C-6.74144815 38.71174727 -8.49714188 31.45388622 -9.4375 23.125 C-9.0491856 14.5820831 -6.1524794 5.98157719 0 0 Z " fill="#1A9A80" transform="translate(62,41)"/>
<path d="M0 0 C-4.62 11.88 -9.24 23.76 -14 36 C-21 30 -21 30 -24 27 C-24 26.34 -24 25.68 -24 25 C-24.66 25 -25.32 25 -26 25 C-27.2265625 23.71484375 -27.2265625 23.71484375 -28.625 21.9375 C-31.56978872 18.34398308 -34.84221276 15.4785261 -38.4609375 12.578125 C-40 11 -40 11 -40 8 C-34.78810963 6.68952323 -29.57371331 5.3897425 -24.35668945 4.09985352 C-22.58186842 3.65943556 -20.80777112 3.21609037 -19.03442383 2.76977539 C-16.48703121 2.12918631 -13.93723128 1.49912915 -11.38671875 0.87109375 C-10.19594978 0.5680558 -10.19594978 0.5680558 -8.98112488 0.25889587 C-3.34161512 -1.11387171 -3.34161512 -1.11387171 0 0 Z " fill="#1D9980" transform="translate(112,23)"/>
<path d="M0 0 C3.8927186 1.79393201 6.50440999 4.3087711 9.4375 7.375 C12.12803897 10.16629424 14.78500002 12.83189302 17.84765625 15.2265625 C18.91306641 16.10441406 18.91306641 16.10441406 20 17 C20 17.66 20 18.32 20 19 C20.99 19.33 21.98 19.66 23 20 C23 20.66 23 21.32 23 22 C23.66 22 24.32 22 25 22 C26.48046875 23.50390625 26.48046875 23.50390625 28.1875 25.5625 C31.60201725 29.58675247 35.21845349 33.32190005 39 37 C37.60919475 40.13738154 35.98977796 42.25475281 33.56005859 44.66699219 C32.85948334 45.36741638 32.15890808 46.06784058 31.43710327 46.78948975 C30.68184357 47.53442688 29.92658386 48.27936401 29.1484375 49.046875 C28.37440582 49.81807678 27.60037415 50.58927856 26.80288696 51.3838501 C24.33158077 53.84396856 21.85340817 56.29703848 19.375 58.75 C17.69745948 60.41750894 16.02037055 62.08547232 14.34375 63.75390625 C10.23439081 67.8412237 6.11937353 71.92277696 2 76 C-1.13738154 74.60919475 -3.25475281 72.98977796 -5.66699219 70.56005859 C-6.36741638 69.85948334 -7.06784058 69.15890808 -7.78948975 68.43710327 C-8.90689545 67.30421371 -8.90689545 67.30421371 -10.046875 66.1484375 C-10.81807678 65.37440582 -11.58927856 64.60037415 -12.3838501 63.80288696 C-14.84396856 61.33158077 -17.29703848 58.85340817 -19.75 56.375 C-21.41750894 54.69745948 -23.08547232 53.02037055 -24.75390625 51.34375 C-28.8412237 47.23439081 -32.92277696 43.11937353 -37 39 C-35.60919475 35.86261846 -33.98977796 33.74524719 -31.56005859 31.33300781 C-30.85948334 30.63258362 -30.15890808 29.93215942 -29.43710327 29.21051025 C-28.68184357 28.46557312 -27.92658386 27.72063599 -27.1484375 26.953125 C-26.37440582 26.18192322 -25.60037415 25.41072144 -24.80288696 24.6161499 C-22.33158077 22.15603144 -19.85340817 19.70296152 -17.375 17.25 C-15.69745948 15.58249106 -14.02037055 13.91452768 -12.34375 12.24609375 C-8.23439081 8.1587763 -4.11937353 4.07722304 0 0 Z M-1.56924438 3.32873535 C-2.1865744 3.95050659 -2.80390442 4.57227783 -3.43994141 5.21289062 C-4.14051666 5.91361694 -4.84109192 6.61434326 -5.56289673 7.33630371 C-6.31815643 8.10188599 -7.07341614 8.86746826 -7.8515625 9.65625 C-8.62559418 10.43311157 -9.39962585 11.20997314 -10.19711304 12.01037598 C-12.6777884 14.50228149 -15.15143507 17.00103814 -17.625 19.5 C-19.30162627 21.18665239 -20.97870376 22.87285637 -22.65625 24.55859375 C-26.77609088 28.7005326 -30.89017592 32.84812314 -35 37 C-33.63886987 40.04581486 -32.10669904 42.13839026 -29.74365234 44.48339844 C-29.08311859 45.14378113 -28.42258484 45.80416382 -27.74203491 46.48455811 C-27.03052277 47.18574768 -26.31901062 47.88693726 -25.5859375 48.609375 C-24.85629791 49.33618469 -24.12665833 50.06299438 -23.37490845 50.81182861 C-21.0462612 53.12929198 -18.71075174 55.4396995 -16.375 57.75 C-14.79381347 59.32115444 -13.21307875 60.89276371 -11.6328125 62.46484375 C-7.7604331 66.31518653 -3.88239829 70.15976117 0 74 C3.04581486 72.63886987 5.13839026 71.10669904 7.48339844 68.74365234 C8.14378113 68.08311859 8.80416382 67.42258484 9.48455811 66.74203491 C10.18574768 66.03052277 10.88693726 65.31901062 11.609375 64.5859375 C12.69958954 63.49147812 12.69958954 63.49147812 13.81182861 62.37490845 C16.12929198 60.0462612 18.4396995 57.71075174 20.75 55.375 C22.32115444 53.79381347 23.89276371 52.21307875 25.46484375 50.6328125 C29.31518653 46.7604331 33.15976117 42.88239829 37 39 C35.64218786 35.9691582 34.11581436 33.86349327 31.77539062 31.51660156 C31.12131226 30.85621887 30.46723389 30.19583618 29.79333496 29.51544189 C29.08809692 28.81425232 28.38285889 28.11306274 27.65625 27.390625 C26.93135376 26.66381531 26.20645752 25.93700562 25.45959473 25.18817139 C23.92880989 23.65602721 22.39550303 22.12639925 20.85986328 20.59912109 C18.5018923 18.25188369 16.15480454 15.89414222 13.80859375 13.53515625 C12.32095364 12.04883718 10.83269356 10.56313831 9.34375 9.078125 C8.63851196 8.3688385 7.93327393 7.659552 7.20666504 6.92877197 C6.55258667 6.28099792 5.8985083 5.63322388 5.22460938 4.96582031 C4.64884155 4.39164368 4.07307373 3.81746704 3.4798584 3.22589111 C1.35370431 1.46461895 0.52366525 1.5565939 -1.56924438 3.32873535 Z " fill="#2A2A29" transform="translate(63,26)"/>
<path d="M0 0 C6.29079785 2.22028159 9.92515782 4.85031563 13 11 C13.59057744 16.67862925 13.29370905 21.16922672 10 26 C7.02008365 29.08008161 4.25002807 31.14632266 0 32 C0.495 30.515 0.495 30.515 1 29 C3.28764609 19.84941563 2.97376191 8.92128574 0 0 Z " fill="#0B090A" transform="translate(73,48)"/>
<path d="M0 0 C0.33 0.66 0.66 1.32 1 2 C0.54367188 3.30324219 0.54367188 3.30324219 0.078125 4.6328125 C-1.14492636 8.45263232 -1.30255025 11.91120984 -1.25 15.875 C-1.24613281 16.57882813 -1.24226563 17.28265625 -1.23828125 18.0078125 C-1.15528431 22.98762916 -0.56964191 27.29107427 1 32 C-4.75084495 29.97029002 -7.46499371 27.99059711 -11 23 C-12.66026461 18.01920617 -12.59903425 13.69726371 -10.875 8.8125 C-8.05299253 4.57948879 -4.92271008 1.64090336 0 0 Z " fill="#0A0909" transform="translate(54,48)"/>
<path d="M0 0 C0.33 0.66 0.66 1.32 1 2 C0.67 2.66 0.34 3.32 0 4 C-0.66 4 -1.32 4 -2 4 C-2.33 4.99 -2.66 5.98 -3 7 C-3.33 6.34 -3.66 5.68 -4 5 C-5.98 5.99 -5.98 5.99 -8 7 C-6.86500606 3.70851757 -6.00716624 3.0040131 -2.875 1.25 C-1.92625 0.8375 -0.9775 0.425 0 0 Z " fill="#0F1010" transform="translate(54,48)"/>
<path d="M0 0 C1.32 0.66 2.64 1.32 4 2 C3.67 2.99 3.34 3.98 3 5 C-0.0625 6.1875 -0.0625 6.1875 -3 7 C-2.67 5.35 -2.34 3.7 -2 2 C-1.34 2 -0.68 2 0 2 C0 1.34 0 0.68 0 0 Z " fill="#131413" transform="translate(76,73)"/>
<path d="M0 0 C0.66 0.66 1.32 1.32 2 2 C-0.64 4.31 -3.28 6.62 -6 9 C-6.66 8.67 -7.32 8.34 -8 8 C-5.36 5.36 -2.72 2.72 0 0 Z " fill="#BD8159" transform="translate(93,73)"/>
</svg>
